<svg width="1112" height="523" fill="none" xmlns="http://www.w3.org/2000/svg"><path d="M40 .5h1032c9.44 0 16.47.001 21.88.728 5.39.725 9.09 2.163 11.91 4.983 2.82 2.821 4.26 6.52 4.98 11.91.73 5.405.73 12.437.73 21.879v443c0 9.442 0 16.474-.73 21.879-.72 5.391-2.16 9.089-4.98 11.91-2.82 2.82-6.52 4.258-11.91 4.983-5.41.727-12.44.728-21.88.728H40c-9.442 0-16.474-.001-21.879-.728-5.39-.725-9.089-2.163-11.91-4.983-2.82-2.821-4.258-6.519-4.983-11.91C.5 499.474.5 492.442.5 483V40c0-9.442.001-16.474.728-21.879.725-5.39 2.163-9.089 4.983-11.91 2.821-2.82 6.52-4.258 11.91-4.983C23.526.5 30.558.5 40 .5z" stroke="url(#paint0_linear_372_9)"/><defs><linearGradient id="paint0_linear_372_9" x1="556" y1="0" x2="556" y2="523" gradientUnits="userSpaceOnUse"><stop stop-color="#FBECDF"/><stop offset=".882" stop-color="#BCA589"/><stop offset="1" stop-color="#806E5A"/></linearGradient></defs></svg>