<svg width="27" height="27" fill="none" xmlns="http://www.w3.org/2000/svg"><circle cx="13.5" cy="13.5" r="13.5" fill="url(#paint0_linear_375_11)"/><circle cx="13.5" cy="13.5" r="13.5" fill="url(#paint1_radial_375_11)" fill-opacity=".2"/><circle cx="13.5" cy="13.5" r="13.5" fill="url(#paint2_radial_375_11)" fill-opacity=".2"/><g clip-path="url(#clip0_375_11)"><path d="M12.1 15.223l-.214 3.025c.308 0 .44-.133.6-.291l1.443-1.379 2.989 2.19c.548.305.934.144 1.082-.505l1.962-9.193c.175-.811-.292-1.128-.826-.93L7.603 12.557c-.787.305-.775.744-.133.943l2.948.917 6.848-4.285c.323-.214.616-.096.375.118l-5.54 4.974z" fill="#fff"/></g><defs><radialGradient id="paint1_radial_375_11" cx="0" cy="0" r="1" gradientUnits="userSpaceOnUse" gradientTransform="matrix(3.81723 -2.19376 6.12825 10.66337 3.957 12.825)"><stop stop-color="#fff"/><stop offset="1" stop-color="#fff" stop-opacity="0"/></radialGradient><radialGradient id="paint2_radial_375_11" cx="0" cy="0" r="1" gradientUnits="userSpaceOnUse" gradientTransform="matrix(-8.33279 -11.81248 16.40386 -11.57165 22.531 13.5)"><stop stop-color="#fff"/><stop offset="1" stop-color="#fff" stop-opacity="0"/></radialGradient><linearGradient id="paint0_linear_375_11" x1="13.5" y1="0" x2="13.5" y2="27" gradientUnits="userSpaceOnUse"><stop stop-color="#B1DFF2"/><stop offset="1" stop-color="#385C6B"/></linearGradient><clipPath id="clip0_375_11"><path fill="#fff" transform="translate(7 7)" d="M0 0h13v13H0z"/></clipPath></defs></svg>