<svg width="27" height="27" fill="none" xmlns="http://www.w3.org/2000/svg"><circle cx="13.5" cy="13.5" r="13.5" fill="url(#paint0_linear_375_7)"/><circle cx="13.5" cy="13.5" r="13.5" fill="url(#paint1_radial_375_7)" fill-opacity=".2"/><circle cx="13.5" cy="13.5" r="13.5" fill="url(#paint2_radial_375_7)" fill-opacity=".2"/><path fill-rule="evenodd" clip-rule="evenodd" d="M18.474 8.505a6.923 6.923 0 00-4.929-2.044c-3.84 0-6.967 3.126-6.968 6.968 0 1.228.32 2.427.93 3.484l-.989 3.61 3.694-.968a6.962 6.962 0 003.33.848h.003c3.84 0 6.967-3.126 6.969-6.968a6.926 6.926 0 00-2.04-4.93zm-4.929 10.721h-.002c-1.04 0-2.059-.28-2.948-.807l-.212-.126-2.192.575.585-2.137-.137-.219a5.777 5.777 0 01-.886-3.082 5.8 5.8 0 015.794-5.792 5.75 5.75 0 014.095 1.699 5.758 5.758 0 011.695 4.097 5.8 5.8 0 01-5.792 5.792zm3.177-4.337c-.174-.088-1.03-.509-1.19-.567-.16-.058-.275-.087-.391.087-.117.174-.45.567-.552.683-.101.116-.203.13-.377.043-.174-.087-.735-.27-1.4-.864a5.251 5.251 0 01-.969-1.206c-.101-.174 0-.26.077-.355.188-.234.377-.48.435-.596.058-.116.029-.218-.015-.305-.043-.087-.391-.944-.537-1.293-.14-.34-.284-.293-.391-.299a6.91 6.91 0 00-.334-.006.64.64 0 00-.464.218c-.16.175-.61.596-.61 1.453 0 .857.624 1.685.711 1.8.087.117 1.228 1.876 2.975 2.63.415.18.74.287.992.367.417.132.797.114 1.097.069.334-.05 1.03-.422 1.175-.828.145-.407.145-.755.102-.828-.044-.073-.16-.116-.334-.204z" fill="#fff"/><defs><radialGradient id="paint1_radial_375_7" cx="0" cy="0" r="1" gradientUnits="userSpaceOnUse" gradientTransform="matrix(3.81723 -2.19376 6.12825 10.66337 3.957 12.825)"><stop stop-color="#fff"/><stop offset="1" stop-color="#fff" stop-opacity="0"/></radialGradient><radialGradient id="paint2_radial_375_7" cx="0" cy="0" r="1" gradientUnits="userSpaceOnUse" gradientTransform="matrix(-8.33279 -11.81248 16.40386 -11.57165 22.531 13.5)"><stop stop-color="#fff"/><stop offset="1" stop-color="#fff" stop-opacity="0"/></radialGradient><linearGradient id="paint0_linear_375_7" x1="13.5" y1="0" x2="13.5" y2="27" gradientUnits="userSpaceOnUse"><stop stop-color="#BAF2B1"/><stop offset="1" stop-color="#618C5A"/></linearGradient></defs></svg>