<svg width="15" height="15" fill="none" xmlns="http://www.w3.org/2000/svg"><path d="M13.75 10.575v1.875a1.25 1.25 0 01-1.363 1.25 12.37 12.37 0 01-5.393-1.919c-1.51-.96-2.79-2.24-3.75-3.75a12.369 12.369 0 01-1.919-5.418A1.25 1.25 0 012.569 1.25h1.875a1.25 1.25 0 011.25 1.075c.079.6.226 1.19.437 1.756a1.25 1.25 0 01-.281 1.32l-.794.793a10 10 0 003.75 3.75L9.6 9.15a1.25 1.25 0 011.319-.281 8.026 8.026 0 001.756.437 1.25 1.25 0 011.075 1.27z" stroke="url(#paint0_linear_21_431)" stroke-linecap="round" stroke-linejoin="round"/><defs><linearGradient id="paint0_linear_21_431" x1="7.535" y1="1.25" x2="7.535" y2="13.705" gradientUnits="userSpaceOnUse"><stop stop-color="#FBECDF"/><stop offset="1" stop-color="#BCA589"/></linearGradient></defs></svg>